name rise43.5482peak65.4966fall89.1036.mot
datacolumns 19
datarows 26
range 9.83995900000000 9.88162800000000
endheader
time	ground_force1_vx	ground_force1_vy	ground_force1_vz	ground_force1_px	ground_force1_py	ground_force1_pz	ground_force2_vx	ground_force2_vy	ground_force2_vz	ground_force2_px	ground_force2_py	ground_force2_pz	ground_torque1_x	ground_torque1_y	ground_torque1_z	ground_torque2_x	ground_torque2_y	ground_torque2_z	
9.83995900000000	-11.30534100000000	46.04568600000000	-12.00825200000000	0.27232800000000	0.00000000000000	0.07994800000000	-63.40675600000000	791.36183600000004	-51.67573800000000	0.07279200000000	0.00000000000000	-0.09384200000000	0.00000000000000	-6.54264200000000	0.00000000000000	0.00000000000000	-17.27645800000000	0.00000000000000	
9.84162500000000	-12.10383500000000	52.76039500000000	-13.15052000000000	0.27742300000000	0.00000000000000	0.08099300000000	-64.22024100000000	787.91165100000001	-51.23353700000000	0.07182300000000	0.00000000000000	-0.09369600000000	0.00000000000000	-7.25363200000000	0.00000000000000	0.00000000000000	-17.28821600000000	0.00000000000000	
9.84328800000000	-12.68064200000000	59.44476100000000	-14.12861100000000	0.28219900000000	0.00000000000000	0.08194800000000	-65.04095000000000	784.33146999999997	-50.77796600000000	0.07085600000000	0.00000000000000	-0.09354700000000	0.00000000000000	-7.88979700000000	0.00000000000000	0.00000000000000	-17.30230900000000	0.00000000000000	
9.84496000000000	-13.02003500000000	66.03439899999999	-14.92462700000000	0.28669500000000	0.00000000000000	0.08282600000000	-65.86758000000000	780.61866899999995	-50.30900600000000	0.06989100000000	0.00000000000000	-0.09339700000000	0.00000000000000	-8.43932200000000	0.00000000000000	0.00000000000000	-17.31854300000000	0.00000000000000	
9.84662600000000	-13.11762300000000	72.48948100000000	-15.53078400000000	0.29094400000000	0.00000000000000	0.08363500000000	-66.69873900000000	776.77059799999995	-49.82664000000000	0.06893000000000	0.00000000000000	-0.09324400000000	0.00000000000000	-8.89579300000000	0.00000000000000	0.00000000000000	-17.33670500000000	0.00000000000000	
9.84829400000000	-12.97926400000000	78.79428799999999	-15.94862000000000	0.29497100000000	0.00000000000000	0.08438500000000	-67.53295199999999	772.78459699999996	-49.33085800000000	0.06797200000000	0.00000000000000	-0.09308900000000	0.00000000000000	-9.25793000000000	0.00000000000000	0.00000000000000	-17.35656500000000	0.00000000000000	
9.84996000000000	-12.61930500000000	84.95484800000000	-16.18757900000000	0.29879900000000	0.00000000000000	0.08508200000000	-68.36866100000000	768.65800300000001	-48.82165600000000	0.06702000000000	0.00000000000000	-0.09293200000000	0.00000000000000	-9.52895600000000	0.00000000000000	0.00000000000000	-17.37787600000000	0.00000000000000	
9.85162800000000	-12.05844200000000	90.99519900000000	-16.26318800000000	0.30244600000000	0.00000000000000	0.08573200000000	-69.20422900000000	764.38816799999995	-48.29903900000000	0.06607400000000	0.00000000000000	-0.09277300000000	0.00000000000000	-9.71569100000000	0.00000000000000	0.00000000000000	-17.40037200000000	0.00000000000000	
9.85328800000000	-11.32142100000000	96.95280200000001	-16.19505300000000	0.30592700000000	0.00000000000000	0.08633900000000	-70.03794100000000	759.97247100000004	-47.76301900000000	0.06513500000000	0.00000000000000	-0.09261200000000	0.00000000000000	-9.82750800000000	0.00000000000000	0.00000000000000	-17.42377200000000	0.00000000000000	
9.85495800000000	-10.43480300000000	102.87365500000000	-16.00486200000000	0.30925400000000	0.00000000000000	0.08690900000000	-70.86800599999999	755.40833299999997	-47.21362300000000	0.06420300000000	0.00000000000000	-0.09244800000000	0.00000000000000	-9.87525500000000	0.00000000000000	0.00000000000000	-17.44777800000000	0.00000000000000	
9.85662800000000	-9.42496600000000	108.80754500000000	-15.71457300000000	0.31244000000000	0.00000000000000	0.08744400000000	-71.69256700000000	750.69322799999998	-46.65088700000000	0.06327900000000	0.00000000000000	-0.09228300000000	0.00000000000000	-9.87024300000000	0.00000000000000	0.00000000000000	-17.47208000000000	0.00000000000000	
9.85829400000000	-8.31646200000000	114.80379499999999	-15.34488000000000	0.31549200000000	0.00000000000000	0.08794900000000	-72.50969600000001	745.82470499999999	-46.07486200000000	0.06236500000000	0.00000000000000	-0.09211500000000	0.00000000000000	-9.82335500000000	0.00000000000000	0.00000000000000	-17.49635200000000	0.00000000000000	
9.85996000000000	-7.13079300000000	120.90775200000000	-14.91404300000000	0.31841900000000	0.00000000000000	0.08842500000000	-73.31740400000000	740.80039799999997	-45.48561500000000	0.06146000000000	0.00000000000000	-0.09194500000000	0.00000000000000	-9.74435300000000	0.00000000000000	0.00000000000000	-17.52025600000000	0.00000000000000	
9.86162000000000	-5.88562700000000	127.15816700000001	-14.43710900000000	0.32122700000000	0.00000000000000	0.08887500000000	-74.11364500000001	735.61804400000005	-44.88322700000000	0.06056600000000	0.00000000000000	-0.09177300000000	0.00000000000000	-9.64137800000000	0.00000000000000	0.00000000000000	-17.54344200000000	0.00000000000000	
9.86329400000000	-4.59444200000000	133.58549500000001	-13.92550400000000	0.32392100000000	0.00000000000000	0.08930100000000	-74.89631799999999	730.27550099999996	-44.26780100000000	0.05968200000000	0.00000000000000	-0.09159900000000	0.00000000000000	-9.52066300000000	0.00000000000000	0.00000000000000	-17.56554900000000	0.00000000000000	
9.86495500000000	-3.26654500000000	140.21108799999999	-13.38697300000000	0.32650700000000	0.00000000000000	0.08970500000000	-75.66327300000000	724.77076599999998	-43.63945400000000	0.05881100000000	0.00000000000000	-0.09142300000000	0.00000000000000	-9.38644500000000	0.00000000000000	0.00000000000000	-17.58620800000000	0.00000000000000	
9.86662600000000	-1.90739500000000	147.04717900000000	-12.82580400000000	0.32898800000000	0.00000000000000	0.09008900000000	-76.41231900000000	719.10199000000000	-42.99832900000000	0.05795100000000	0.00000000000000	-0.09124500000000	0.00000000000000	-9.24104000000000	0.00000000000000	0.00000000000000	-17.60504000000000	0.00000000000000	
9.86829000000000	-0.51915300000000	154.09750600000001	-12.24326500000000	0.33136800000000	0.00000000000000	0.09045400000000	-77.14122700000000	713.26750000000004	-42.34458500000000	0.05710300000000	0.00000000000000	-0.09106500000000	0.00000000000000	-9.08504800000000	0.00000000000000	0.00000000000000	-17.62165800000000	0.00000000000000	
9.86996200000000	0.89862700000000	161.35842600000001	-11.63819000000000	0.33364900000000	0.00000000000000	0.09080100000000	-77.84773600000000	707.26581299999998	-41.67840800000000	0.05626900000000	0.00000000000000	-0.09088300000000	0.00000000000000	-8.91766200000000	0.00000000000000	0.00000000000000	-17.63567000000000	0.00000000000000	
9.87162800000000	2.34823800000000	168.82032599999999	-11.00763400000000	0.33583500000000	0.00000000000000	0.09113100000000	-78.52955900000001	701.09565599999996	-41.00000300000000	0.05544700000000	0.00000000000000	-0.09069900000000	0.00000000000000	-8.73702100000000	0.00000000000000	0.00000000000000	-17.64668100000000	0.00000000000000	
9.87329100000000	3.83306600000000	176.46918299999999	-10.34754400000000	0.33792700000000	0.00000000000000	0.09144600000000	-79.18438999999999	694.75598800000000	-40.30960300000000	0.05463900000000	0.00000000000000	-0.09051300000000	0.00000000000000	-8.54058100000000	0.00000000000000	0.00000000000000	-17.65429000000000	0.00000000000000	
9.87495700000000	5.35689700000000	184.28813400000001	-9.65338200000000	0.33992700000000	0.00000000000000	0.09174700000000	-79.80991100000000	688.24600899999996	-39.60746300000000	0.05384500000000	0.00000000000000	-0.09032500000000	0.00000000000000	-8.32547600000000	0.00000000000000	0.00000000000000	-17.65809500000000	0.00000000000000	
9.87662300000000	6.92332200000000	192.25892300000001	-8.92068200000000	0.34183700000000	0.00000000000000	0.09203400000000	-80.40379600000000	681.56518400000004	-38.89386400000000	0.05306400000000	0.00000000000000	-0.09013600000000	0.00000000000000	-8.08884300000000	0.00000000000000	0.00000000000000	-17.65769200000000	0.00000000000000	
9.87829400000000	8.53526400000000	200.36315700000000	-8.14548600000000	0.34365800000000	0.00000000000000	0.09230700000000	-80.96372200000000	674.71325200000001	-38.16911600000000	0.05229800000000	0.00000000000000	-0.08994400000000	0.00000000000000	-7.82808100000000	0.00000000000000	0.00000000000000	-17.65267900000000	0.00000000000000	
9.87995500000000	10.19464600000000	208.58330699999999	-7.32467500000000	0.34539100000000	0.00000000000000	0.09256800000000	-81.48737000000000	667.69024200000001	-37.43355100000000	0.05154500000000	0.00000000000000	-0.08975000000000	0.00000000000000	-7.54105900000000	0.00000000000000	0.00000000000000	-17.64265600000000	0.00000000000000	
9.88162800000000	11.90219300000000	216.90344200000001	-6.45617700000000	0.34703700000000	0.00000000000000	0.09281800000000	-81.97244000000001	660.49648300000001	-36.68753200000000	0.05080600000000	0.00000000000000	-0.08955500000000	0.00000000000000	-7.22624500000000	0.00000000000000	0.00000000000000	-17.62722600000000	0.00000000000000	
